<?xml version="1.0" encoding="utf-8"?>
<!-- Generator: Adobe Illustrator 16.0.0, SVG Export Plug-In . SVG Version: 6.00 Build 0)  -->
<!DOCTYPE svg PUBLIC "-//W3C//DTD SVG 1.1//EN" "http://www.w3.org/Graphics/SVG/1.1/DTD/svg11.dtd">
<svg version="1.1" id="Layer_1" xmlns="http://www.w3.org/2000/svg" xmlns:xlink="http://www.w3.org/1999/xlink" x="0px" y="0px"
	   viewBox="0 0 335 170" enable-background="new 0 0 335 170" xml:space="preserve">
<g>
	<path fill="#B2D235" d="M330.729,37.026h-14.82c-1.559,0-2.73-1.17-2.73-2.73V19.474c0-1.56,1.172-2.73,2.73-2.73h14.82
		c1.561,0,2.732,1.171,2.732,2.73v14.822C333.461,35.466,332.289,37.026,330.729,37.026"/>
	<path fill="#B2D235" d="M311.229,16.354h-10.143c-1.172,0-1.949-0.78-1.949-1.95V4.263c0-1.171,0.777-1.95,1.949-1.95h10.143
		c1.172,0,1.949,0.779,1.949,1.95v10.142C313.178,15.184,312.006,16.354,311.229,16.354"/>
	<g>
		<g>
			<defs>
				<path id="SVGID_1_" d="M20.651,55.747c-4.291,0-5.852,1.561-5.852,5.852v30.813h24.572c15.992,0,19.112-6.633,19.112-18.332
					c0-15.211-7.021-18.332-19.112-18.332H20.651 M8.95,139.213H7.39c-4.29,0-5.851-1.557-5.851-5.849V60.038
					c0-11.31,5.069-16.382,16.382-16.382h21.451c21.843,0,32.374,9.752,32.374,30.423c0,21.063-10.142,30.813-32.374,30.813H14.8
					v28.472C14.8,137.656,13.63,139.213,8.95,139.213 M255.064,140.385L255.064,140.385L255.064,140.385
					c-18.725,0-31.984-5.85-39.006-16.382c-3.508-5.461-5.457-12.481-5.457-20.281V53.017c0-8.19,3.508-9.749,12.09-9.749h2.73
					c8.969,0,12.09,1.559,12.09,9.749v19.112l0,0v4.291v0.389v26.524c0,3.116,0.781,5.849,1.949,7.8
					c2.34,3.901,7.412,5.46,14.82,5.46c7.803,0,12.484-1.559,14.822-5.46c1.168-1.951,1.951-4.684,1.951-7.8V76.809V76.42v-4.291
					l0,0V53.017c0-8.19,3.51-9.749,12.09-9.749h1.563v17.159c0,2.341,1.559,3.902,3.9,3.902h9.75v38.613
					c0,8.19-1.951,14.821-5.461,20.279C287.043,134.535,273.785,140.385,255.064,140.385 M101.779,106.063
					c-12.871,0-17.942,3.118-17.942,11.7c0,7.801,5.071,11.311,15.211,11.311c15.604,0,18.722-4.682,18.722-12.871v-10.14H101.779
					 M99.438,140.385c-17.941,0-28.082-8.192-28.082-22.621c0-14.821,9.75-21.842,30.423-21.842h15.99v-7.8
					c0-8.582-5.07-12.093-17.942-12.093c-7.019,0-13.649,1.172-15.6,1.561c-0.78,0.389-1.561,0.389-2.341,0.389
					c-1.17,0-2.341-0.389-2.73-1.17c-0.389-0.779-0.78-1.95-0.78-3.51v-1.17c0-3.9,1.561-5.07,5.071-5.85
					c1.95-0.392,7.411-1.562,15.601-1.562c21.063,0,31.203,7.8,31.203,23.404v28.471C130.641,132.975,120.89,140.385,99.438,140.385
					 M155.213,167.688c-3.509,0-4.289-1.949-5.07-4.682l-0.389-1.171c-0.392-1.168-0.392-2.728,0.389-3.899
					c0.781-1.169,1.95-1.169,4.291-1.559c10.531-1.171,14.041-5.849,17.553-16.771c-1.563,0.389-3.512,0.778-5.853,0.778
					c-11.312,0-14.43-7.8-17.161-17.551l-13.65-50.316c-0.392-1.559-0.78-3.509,0-4.68c0.779-1.17,2.729-1.17,4.29-1.17h1.171
					c4.289,0,5.85,1.17,7.019,5.461l14.043,49.534c1.559,6.24,3.51,7.411,7.8,7.411c3.51,0,5.85-1.171,7.021-7.411L188.76,71.74
					c0.777-4.291,2.727-5.461,7.018-5.461h1.17c1.561,0,3.512,0,4.291,1.17s0.779,2.729,0.391,4.68l-16.77,66.307
					c-4.682,19.5-13.264,27.692-28.867,28.863C155.992,167.688,155.604,167.688,155.213,167.688"/>
			</defs>
			<clipPath id="SVGID_2_">
				<use xlink:href="#SVGID_1_"  overflow="visible"/>
			</clipPath>
			
				<linearGradient id="SVGID_3_" gradientUnits="userSpaceOnUse" x1="-93.4858" y1="-20.2803" x2="-92.577" y2="-20.2803" gradientTransform="matrix(0 139.017 -139.017 0 -2668.7856 13065.7637)">
				<stop  offset="0" style="stop-color:#B3D335"/>
				<stop  offset="1" style="stop-color:#3C9339"/>
			</linearGradient>
			<rect x="1.929" y="43.656" clip-path="url(#SVGID_2_)" fill="url(#SVGID_3_)" width="297.208" height="124.031"/>
		</g>
	</g>
	<path fill="#B3D335" d="M309.279,64.718L309.279,64.718h-10.143V53.017c0-8.19-3.51-9.749-12.094-9.749h-1.557v-2.731
		c0-2.341,1.557-3.899,3.9-3.899l0,0h19.893c2.338,0,3.898,1.559,3.898,3.899v19.891C313.178,62.768,311.229,64.718,309.279,64.718"
		/>
	<g>
		<g>
			<defs>
				<path id="SVGID_4_" d="M299.137,64.718h-9.75c-2.344,0-3.9-1.56-3.9-3.898V43.656h1.557c8.973,0,12.094,1.561,12.094,9.752
					V64.718"/>
			</defs>
			<clipPath id="SVGID_5_">
				<use xlink:href="#SVGID_4_"  overflow="visible"/>
			</clipPath>
			
				<linearGradient id="SVGID_6_" gradientUnits="userSpaceOnUse" x1="-93.4854" y1="-21.3003" x2="-92.5718" y2="-21.3003" gradientTransform="matrix(0 139.017 -139.017 0 -2668.7856 13065.7637)">
				<stop  offset="0" style="stop-color:#79C143"/>
				<stop  offset="1" style="stop-color:#008E3C"/>
			</linearGradient>
			<rect x="285.486" y="43.656" clip-path="url(#SVGID_5_)" fill="url(#SVGID_6_)" width="13.65" height="21.062"/>
		</g>
	</g>
</g>
</svg>
